<svg width="80" height="80" viewBox="0 0 80 80" fill="none" xmlns="http://www.w3.org/2000/svg">
<g clip-path="url(#clip0_4_1086)">
<path fill-rule="evenodd" clip-rule="evenodd" d="M75.18 52.9833C75.6418 53.2135 76.1507 53.3333 76.6667 53.3333C77.4185 53.3348 78.1487 53.0821 78.7388 52.6161C79.3288 52.1502 79.7441 51.4986 79.917 50.7669C80.09 50.0353 80.0106 49.2666 79.6916 48.5858C79.3726 47.905 78.8329 47.352 78.16 47.0167L71.4933 43.6833C70.7021 43.2882 69.7863 43.2235 68.9474 43.5035C68.1085 43.7836 67.4152 44.3854 67.02 45.1767C66.6248 45.9679 66.5602 46.8837 66.8402 47.7226C67.1203 48.5615 67.7221 49.2548 68.5133 49.65L75.18 52.9833ZM78.1567 19.6667L71.49 23C70.6988 23.3952 69.783 23.4598 68.9441 23.1798C68.1051 22.8997 67.4118 22.2979 67.0167 21.5067C66.6215 20.7154 66.5568 19.7996 66.8369 18.9607C67.1169 18.1218 67.7188 17.4285 68.51 17.0333L75.1767 13.7C75.9679 13.3048 76.8837 13.2402 77.7226 13.5202C78.5615 13.8003 79.2548 14.4021 79.65 15.1933C80.0452 15.9846 80.1099 16.9004 79.8298 17.7393C79.5497 18.5782 78.9479 19.2715 78.1567 19.6667ZM79.0237 30.9763C79.6488 31.6014 80 32.4493 80 33.3333C80 34.2174 79.6488 35.0652 79.0237 35.6904C78.3986 36.3155 77.5507 36.6667 76.6667 36.6667H70C69.116 36.6667 68.2681 36.3155 67.643 35.6904C67.0179 35.0652 66.6667 34.2174 66.6667 33.3333C66.6667 32.4493 67.0179 31.6014 67.643 30.9763C68.2681 30.3512 69.116 30 70 30H76.6667C77.5507 30 78.3986 30.3512 79.0237 30.9763ZM60 3.33333V63.3333C60 64.2174 59.6488 65.0652 59.0237 65.6904C58.3986 66.3155 57.5507 66.6667 56.6667 66.6667C55.7826 66.6667 54.9348 66.3155 54.3097 65.6904C53.6845 65.0652 53.3333 64.2174 53.3333 63.3333C53.3333 53.5033 44.7233 50 36.6667 50H13.3333C9.79711 50 6.40573 48.5952 3.90524 46.0948C1.40476 43.5943 0 40.2029 0 36.6667V30C0 26.4638 1.40476 23.0724 3.90524 20.5719C6.40573 18.0714 9.79711 16.6667 13.3333 16.6667H36.6667C44.7233 16.6667 53.3333 13.1633 53.3333 3.33333C53.3333 2.44928 53.6845 1.60143 54.3097 0.976311C54.9348 0.35119 55.7826 0 56.6667 0C57.5507 0 58.3986 0.35119 59.0237 0.976311C59.6488 1.60143 60 2.44928 60 3.33333ZM13.3333 56.6667H27.2867L32.6667 68.4267C33.2285 69.6756 33.4688 71.0453 33.3658 72.411C33.2627 73.7766 32.8195 75.0947 32.0766 76.2452C31.3337 77.3957 30.3146 78.342 29.1124 78.9978C27.9101 79.6536 26.5628 79.9982 25.1933 80C23.472 79.9998 21.7876 79.5007 20.3441 78.563C18.9006 77.6253 17.7599 76.2893 17.06 74.7167L8.72667 56.11C10.2354 56.4737 11.7814 56.6605 13.3333 56.6667ZM43.5817 42.3136C44.4223 42.8253 45.3406 43.0811 46.3366 43.0811C47.3509 43.0811 48.2738 42.8253 49.1053 42.3136C49.9368 41.8019 50.6038 41.1166 51.1064 40.2577C51.5998 39.4079 51.8465 38.4713 51.8465 37.4479L51.8191 28.5526C51.8191 27.5201 51.5678 26.5835 51.0652 25.7429C50.5718 24.8931 49.9139 24.2169 49.0916 23.7144C48.2783 23.2118 47.36 22.9605 46.3366 22.9605C45.3498 22.9605 44.436 23.2164 43.5954 23.7281C42.7547 24.2306 42.0877 24.9022 41.5943 25.7429C41.0917 26.5744 40.8405 27.511 40.8405 28.5526L40.813 37.4479C40.813 38.4713 41.0643 39.4125 41.5669 40.2714C42.0786 41.1212 42.7502 41.8019 43.5817 42.3136ZM47.8169 39.0104C47.3966 39.4673 46.9031 39.6957 46.3366 39.6957C45.761 39.6957 45.2675 39.4764 44.8564 39.0378C44.4452 38.5901 44.2396 38.0601 44.2396 37.4479V28.5526C44.2396 27.913 44.4452 27.383 44.8564 26.9627C45.2675 26.5424 45.761 26.3322 46.3366 26.3322C46.9397 26.3322 47.4377 26.547 47.8306 26.9764C48.2235 27.4059 48.42 27.9313 48.42 28.5526L48.4474 37.4479C48.4474 38.0236 48.2372 38.5444 47.8169 39.0104ZM31.3536 42.807H27.9545C27.8723 42.807 27.8266 42.7613 27.8174 42.67L23.9386 23.3854C23.9203 23.3123 23.9569 23.2758 24.0482 23.2758H27.2281C27.3012 23.2758 27.3469 23.3123 27.3651 23.3854L29.6678 36.2418L31.9156 23.3854C31.9338 23.3123 31.9795 23.2758 32.0526 23.2758H35.1913C35.2918 23.2758 35.3284 23.3123 35.301 23.3854L31.4907 42.67C31.4815 42.7613 31.4359 42.807 31.3536 42.807ZM10.2166 42.3136C11.0572 42.8253 11.9755 43.0811 12.9715 43.0811C13.9857 43.0811 14.9086 42.8253 15.7401 42.3136C16.5716 41.8019 17.2387 41.1166 17.7412 40.2577C18.2346 39.4079 18.4814 38.4713 18.4814 37.4479L18.4539 28.5526C18.4539 27.5201 18.2027 26.5835 17.7001 25.7429C17.2067 24.8931 16.5488 24.2169 15.7264 23.7144C14.9132 23.2118 13.9949 22.9605 12.9715 22.9605C11.9846 22.9605 11.0709 23.2164 10.2303 23.7281C9.38962 24.2306 8.72259 24.9022 8.22917 25.7429C7.72661 26.5744 7.47533 27.511 7.47533 28.5526L7.44792 37.4479C7.44792 38.4713 7.6992 39.4125 8.20175 40.2714C8.71345 41.1212 9.38505 41.8019 10.2166 42.3136ZM14.4518 39.0104C14.0314 39.4673 13.538 39.6957 12.9715 39.6957C12.3958 39.6957 11.9024 39.4764 11.4912 39.0378C11.08 38.5901 10.8745 38.0601 10.8745 37.4479V28.5526C10.8745 27.913 11.08 27.383 11.4912 26.9627C11.9024 26.5424 12.3958 26.3322 12.9715 26.3322C13.5746 26.3322 14.0726 26.547 14.4655 26.9764C14.8584 27.4059 15.0548 27.9313 15.0548 28.5526L15.0822 37.4479C15.0822 38.0236 14.8721 38.5444 14.4518 39.0104Z" fill="#A7AAAD"/>
</g>
<defs>
<clipPath id="clip0_4_1086">
<rect width="80" height="80" fill="white"/>
</clipPath>
</defs>
</svg>
